<svg xmlns="http://www.w3.org/2000/svg" width="235" height="207" viewBox="0 0 235 207" fill="none">
  <g opacity="1">
    <path d="M138.266 57.3297L39.3216 38.7684C33.8196 37.7361 28.6259 44.3023 31.1578 49.0936L76.583 135.067C80.5739 142.621 87.6013 147.809 96.2307 149.572L194.443 169.643C199.914 170.762 205.191 164.258 202.738 159.416L158.645 72.3741C154.623 64.4335 147.293 59.0223 138.267 57.3289" fill="url(#paint0_linear_9_5312)"/>
    <path d="M76.5836 76.9724V180.814C76.5836 185.753 80.8866 189.135 84.8548 187.315L185.808 141.977C186.934 141.461 187.9 140.565 188.58 139.406C189.26 138.247 189.624 136.878 189.624 135.477V31.6344C189.624 26.6952 185.32 23.3142 181.352 25.1338L80.3986 70.4707C79.2728 70.9874 78.3071 71.8835 77.6267 73.0428C76.9463 74.2021 76.5826 75.5711 76.5826 76.9724" fill="url(#paint1_linear_9_5312)"/>
    <path d="M191.117 115.013L161.157 131.75L158.115 133.451L94.8692 168.512C90.8603 170.75 85.743 167.37 85.743 162.217V64.752C85.743 62.8875 86.5696 61.2779 87.678 60.0655C88.1321 59.5427 88.6471 59.096 89.2081 58.7383C90.7194 57.6889 92.8756 57.4088 94.7084 58.2481L190.613 102.213C195.489 104.45 195.872 112.354 191.117 115.012" fill="url(#paint2_linear_9_5312)"/>
    <path d="M189.126 114.895L159.165 131.632L85.6851 59.9493C86.1392 59.4265 86.6542 58.9798 87.2153 58.6221C88.7265 57.5727 90.8827 57.2926 92.7155 58.1319L188.621 102.097C193.496 104.334 193.879 112.238 189.125 114.895" fill="black" fill-opacity="0.25"/>
  </g>
  <defs>
    <linearGradient id="paint0_linear_9_5312" x1="90.8271" y1="37.2332" x2="54.2155" y2="97.2935" gradientUnits="userSpaceOnUse">
      <stop stop-color="#AD7EE1"/>
      <stop offset="0.640625" stop-color="#636FCB"/>
      <stop offset="1" stop-color="#2A64BB" stop-opacity="0"/>
    </linearGradient>
    <linearGradient id="paint1_linear_9_5312" x1="133.103" y1="24.6348" x2="133.103" y2="187.814" gradientUnits="userSpaceOnUse">
      <stop stop-color="#AD7EE1"/>
      <stop offset="1" stop-color="#2A64BB"/>
    </linearGradient>
    <linearGradient id="paint2_linear_9_5312" x1="193.341" y1="80.4562" x2="97.4362" y2="80.4562" gradientUnits="userSpaceOnUse">
      <stop stop-color="#6AEAFE"/>
      <stop offset="0.0520651" stop-color="#37D1E9"/>
      <stop offset="0.791032" stop-color="#1B5A8C"/>
      <stop offset="1" stop-color="#2C5491"/>
    </linearGradient>
  </defs>
</svg>